<?xml version="1.0" encoding="UTF-8" standalone="no"?><svg xmlns="http://www.w3.org/2000/svg" xmlns:xlink="http://www.w3.org/1999/xlink" data-name="Layer 1" fill="#ffffff" height="451.7" preserveAspectRatio="xMidYMid meet" version="1" viewBox="196.7 57.8 455.6 451.7" width="455.6" zoomAndPan="magnify"><g id="change1_1"><path d="M348.72,361.78c-83.81,0-152-68.18-152-152s68.18-152,152-152,152,68.18,152,152S432.53,361.78,348.72,361.78Zm0-279a127,127,0,1,0,127,127A127.14,127.14,0,0,0,348.72,82.8Z"/></g><g id="change1_2"><path d="M458.48,378.21a14,14,0,0,1-9.94-23.86l38.71-39A14,14,0,1,1,507.13,335l-38.71,39A14,14,0,0,1,458.48,378.21Z"/></g><g id="change1_3"><path d="M626.46,509.49a23.92,23.92,0,0,1-17.17-7.22l-103-105.48a24,24,0,0,1,34.34-33.55l103,105.48a24,24,0,0,1-17.17,40.77Z"/></g><g id="change1_4"><path d="M348.47,316.84c-19.58,0-45.46-5.61-73.16-26.92-24.32-18.7-35.53-47.47-32.43-83.18A162.66,162.66,0,0,1,254.67,159a7.5,7.5,0,0,1,13.69,6.13h0a150,150,0,0,0-10.57,43.27c-2.56,30.6,6.41,54,26.66,69.6,50,38.48,92.75,18.6,93.18,18.39a7.5,7.5,0,1,1,6.51,13.51C383.07,310.45,369.36,316.84,348.47,316.84Z"/></g></svg>